HIERARCHY
ROOT Hips
{
	OFFSET 0.00 0.00 0.00
	CHANNELS 6 Xposition Yposition Zposition Xrotation Yrotation Zrotation
	JOINT Spine
	{
		OFFSET 0.00000 7.50895 0.00000
		CHANNELS 3 Xrotation Yrotation Zrotation
		JOINT Head
		{
			OFFSET 0.00000 13.86115 0.00000
			CHANNELS 3 Xrotation Yrotation Zrotation
			End Site
			{
				OFFSET 0.00000 4.52755 0.00000
			}
		}
		JOINT LeftShoulder
		{
			OFFSET 0.00000 8.20478 0.00000
			CHANNELS 3 Xrotation Yrotation Zrotation
			JOINT LeftArm
			{
				OFFSET 6.63596 0.00000 0.00000
				CHANNELS 3 Xrotation Yrotation Zrotation
				JOINT LeftForeArm
				{
					OFFSET 10.27422 0.00000 0.00000
					CHANNELS 3 Yrotation Zrotation Xrotation
					JOINT LeftHand
					{
						OFFSET 8.52215 0.00000 0.00000
						CHANNELS 3 Xrotation Yrotation Zrotation
						JOINT LeftHandThumb1
						{
							OFFSET 0.00000 0.00000 0.00000
							CHANNELS 3 Xrotation Zrotation Yrotation
							End Site
							{
								OFFSET 0.00000 0.00000 3.93700
							}
						}
						End Site
						{
							OFFSET 3.93700 0.00000 0.00000
						}
					}
				}
			}
		}
		JOINT RightShoulder
		{
			OFFSET 0.00000 8.20478 0.00000
			CHANNELS 3 Xrotation Yrotation Zrotation
			JOINT RightArm
			{
				OFFSET -6.63596 0.00000 0.00000
				CHANNELS 3 Xrotation Yrotation Zrotation
				JOINT RightForeArm
				{
					OFFSET -10.27422 0.00000 0.00000
					CHANNELS 3 Yrotation Zrotation Xrotation
					JOINT RightHand
					{
						OFFSET -8.52215 0.00000 0.00000
						CHANNELS 3 Xrotation Yrotation Zrotation
						JOINT RightHandThumb1
						{
							OFFSET 0.00000 0.00000 0.00000
							CHANNELS 3 Xrotation Zrotation Yrotation
							End Site
							{
								OFFSET 0.00000 0.00000 3.93700
							}
						}
						End Site
						{
							OFFSET -3.93700 0.00000 0.00000
						}
					}
				}
			}
		}
	}
	JOINT LeftUpLeg
	{
		OFFSET 3.00056 0.00000 0.00000
		CHANNELS 3 Xrotation Yrotation Zrotation
		JOINT LeftLeg
		{
			OFFSET 0.00000 -16.49085 0.00000
			CHANNELS 3 Xrotation Yrotation Zrotation
			JOINT LeftFoot
			{
				OFFSET 0.00000 -14.55658 0.00000
				CHANNELS 3 Xrotation Yrotation Zrotation
				JOINT LeftToeBase
				{
					OFFSET 0.00000 -1.25038 4.66650
					CHANNELS 3 Xrotation Yrotation Zrotation
					End Site
					{
						OFFSET 0.00000 0.00000 2.95275
					}
				}
			}
		}
	}
	JOINT RightUpLeg
	{
		OFFSET -3.00056 0.00000 0.00000
		CHANNELS 3 Xrotation Yrotation Zrotation
		JOINT RightLeg
		{
			OFFSET 0.00000 -16.49085 0.00000
			CHANNELS 3 Xrotation Yrotation Zrotation
			JOINT RightFoot
			{
				OFFSET 0.00000 -14.55658 0.00000
				CHANNELS 3 Xrotation Yrotation Zrotation
				JOINT RightToeBase
				{
					OFFSET 0.00000 -1.25038 4.66650
					CHANNELS 3 Xrotation Yrotation Zrotation
					End Site
					{
						OFFSET 0.00000 0.00000 2.95275
					}
				}
			}
		}
	}
}
MOTION
Frames: 15
Frame Time: 0.008333
 -2.5965 32.7563 -0.8502 10.2181 -1.2689 -1.0053 -10.4407 5.0000 1.9880 -1.8077 -3.9331 6.7828 9.9179 19.0735 27.6565 -27.4097 -9.9481 -31.0862 -12.8270 -0.0000 9.8768 1.8627 29.2417 -3.8089 33.1476 -0.0000 26.2537 -23.8439 -3.8360 -38.9311 1.4309 -11.0666 36.1564 16.6662 -0.0000 29.0428 1.5104 -11.8935 7.2907 32.8623 0.0000 -24.3270 -3.7565 3.0709 1.3977 -2.8648 0.0000 -0.0000 -7.4825 12.1335 -12.8555 3.8459 0.0000 0.0000 -6.1930 -7.9823 1.1950 1.9323 0.0000 -0.0000 -9.6778 0.1214 -6.4676 -0.7667 0.0000 -0.0000
 -2.5958 32.7561 -0.8474 10.2118 -1.2694 -1.0011 -10.4444 4.9911 1.9861 -1.8130 -3.9227 6.8025 9.9080 19.0550 27.6437 -27.3504 -9.9639 -31.0400 -12.8065 -0.0000 9.8926 1.8297 29.0452 -3.7645 33.1476 -0.0000 26.2537 -23.8417 -3.8204 -38.9164 1.4030 -11.0950 36.1376 16.6621 -0.0000 29.1212 1.5270 -11.8437 7.4003 32.8623 0.0000 -24.3270 -3.7440 3.0729 1.3925 -2.8682 -0.0000 0.0000 -7.4821 12.1260 -12.8436 3.8326 -0.0000 0.0000 -6.1807 -7.9873 1.1916 1.9283 0.0000 0.0000 -9.6831 0.1312 -6.4773 -0.7528 -0.0000 0.0000
 -2.5967 32.7561 -0.8459 10.2125 -1.2758 -1.0006 -10.4536 4.9929 1.9863 -1.8312 -3.9203 6.8181 9.9174 19.0667 27.6562 -27.3541 -9.9713 -31.0526 -12.8256 -0.0000 9.8658 1.8608 29.1770 -3.8126 33.1476 -0.0000 26.2537 -23.8435 -3.8074 -38.9170 1.4381 -11.0882 36.1592 16.6555 -0.0000 29.0260 1.5175 -11.8774 7.3346 32.8623 0.0000 -24.3270 -3.7439 3.0950 1.3934 -2.8649 -0.0000 0.0000 -7.4860 12.1140 -12.8524 3.8141 0.0000 -0.0000 -6.1753 -7.9844 1.1916 1.9189 -0.0000 -0.0000 -9.6673 0.1392 -6.5000 -0.8003 -0.0000 -0.0000
 -2.5971 32.7562 -0.8437 10.2143 -1.2732 -1.0002 -10.4677 4.9988 1.9881 -1.8439 -3.9353 6.8399 9.9241 19.0564 27.6528 -27.3477 -9.9878 -31.0374 -12.8189 -0.0000 9.8392 1.8613 29.1654 -3.8150 33.1476 -0.0000 26.2537 -23.8321 -3.8208 -38.9223 1.4189 -11.0990 36.1692 16.6544 -0.0000 29.0305 1.5266 -11.8977 7.3655 32.8623 0.0000 -24.3270 -3.7400 3.0913 1.3938 -2.8706 0.0000 -0.0000 -7.4836 12.1078 -12.8666 3.9682 -0.0000 0.0000 -6.1686 -7.9830 1.1921 1.9123 0.0000 -0.0000 -9.6740 0.1299 -6.4368 -0.8042 0.0000 0.0000
 -2.5965 32.7561 -0.8420 10.2163 -1.2807 -0.9950 -10.4797 5.0124 1.9906 -1.8653 -3.9361 6.8452 9.9109 19.0304 27.6639 -27.3406 -9.9618 -31.0404 -12.8324 -0.0000 9.8409 1.8763 29.1665 -3.8457 33.1476 -0.0000 26.2537 -23.8149 -3.8345 -38.9241 1.3979 -11.1106 36.1732 16.6500 -0.0000 29.0137 1.5250 -11.8804 7.3686 32.8623 0.0000 -24.3270 -3.7355 3.0927 1.3884 -2.8733 -0.0000 -0.0000 -7.4895 12.1229 -12.8579 3.8810 0.0000 -0.0000 -6.1705 -7.9640 1.1885 1.9144 -0.0000 0.0000 -9.6750 0.1069 -6.4687 -0.8239 0.0000 0.0000
 -2.5966 32.7561 -0.8401 10.2165 -1.2761 -0.9946 -10.4901 5.0047 1.9934 -1.8812 -3.9447 6.8662 9.9259 19.0318 27.6651 -27.3771 -9.9393 -31.0405 -12.8394 -0.0000 9.7833 1.9091 29.1816 -3.9108 33.1476 -0.0000 26.2537 -23.8026 -3.8208 -38.9341 1.3957 -11.1754 36.2010 16.6900 -0.0000 29.1188 1.5150 -11.8301 7.3512 32.8623 0.0000 -24.3270 -3.7328 3.0725 1.3862 -2.8714 -0.0000 -0.0000 -7.4898 12.1425 -12.8405 3.8514 -0.0000 0.0000 -6.1617 -7.9785 1.1876 1.9065 -0.0000 -0.0000 -9.6810 0.1220 -6.4710 -0.7973 0.0000 0.0000
 -2.5964 32.7559 -0.8379 10.2148 -1.2739 -0.9879 -10.4977 5.0075 1.9930 -1.9081 -3.9535 6.8740 9.9194 19.0079 27.6771 -27.3926 -9.8974 -31.0489 -12.8520 -0.0000 9.7566 1.9280 29.1705 -3.9509 33.1476 -0.0000 26.2537 -23.8104 -3.8368 -38.9109 1.4201 -11.0852 36.1612 16.5903 -0.0000 28.9594 1.5110 -11.7251 7.3958 32.8623 0.0000 -24.3270 -3.7267 3.0768 1.3779 -2.8723 -0.0000 0.0000 -7.4832 12.1325 -12.8365 3.9455 0.0000 0.0000 -6.1580 -7.9710 1.1827 1.9057 0.0000 -0.0000 -9.6882 0.1163 -6.4856 -0.7832 -0.0000 0.0000
 -2.5972 32.7563 -0.8366 10.2160 -1.2807 -0.9901 -10.5051 5.0132 2.0013 -1.9366 -3.9673 6.8911 9.9260 19.0124 27.6853 -27.4182 -9.8897 -31.0623 -12.8371 -0.0000 9.7743 1.9334 29.1295 -3.9670 33.1476 -0.0000 26.2537 -23.7969 -3.8462 -38.9189 1.3763 -11.1203 36.1881 16.6182 -0.0000 29.0125 1.5250 -11.8907 7.3624 32.8623 0.0000 -24.3270 -3.7289 3.0814 1.3834 -2.8649 -0.0000 -0.0000 -7.4878 12.1314 -12.8367 3.8118 -0.0000 -0.0000 -6.1538 -7.9680 1.1854 1.9003 0.0000 -0.0000 -9.6822 0.1180 -6.4650 -0.7911 0.0000 0.0000
 -2.5970 32.7564 -0.8350 10.2177 -1.2838 -0.9918 -10.5159 5.0168 2.0154 -1.9653 -3.9742 6.8961 9.9127 18.9941 27.6991 -27.4041 -9.8699 -31.0744 -12.8471 -0.0000 9.7898 1.9687 29.1517 -4.0364 33.1476 -0.0000 26.2537 -23.7808 -3.8497 -38.9186 1.3578 -11.1431 36.1862 16.6187 -0.0000 29.0357 1.5195 -11.8656 7.3511 32.8623 0.0000 -24.3270 -3.7287 3.0796 1.3838 -2.8604 0.0000 0.0000 -7.4940 12.1480 -12.8422 3.8304 0.0000 0.0000 -6.1476 -7.9599 1.1871 1.8879 0.0000 -0.0000 -9.6757 0.1124 -6.4592 -0.7612 -0.0000 -0.0000
 -2.5969 32.7566 -0.8329 10.2186 -1.2865 -0.9873 -10.5266 5.0222 2.0194 -1.9903 -3.9762 6.9073 9.9371 18.9986 27.7001 -27.4076 -9.8703 -31.0793 -12.8427 -0.0000 9.8798 1.9508 28.9847 -4.0208 33.1476 -0.0000 26.2537 -23.7818 -3.8422 -38.9119 1.3343 -11.1889 36.1760 16.6235 -0.0000 29.0211 1.5227 -11.8403 7.3816 32.8623 0.0000 -24.3270 -3.7268 3.0866 1.3783 -2.8598 -0.0000 -0.0000 -7.4915 12.1348 -12.8261 3.9551 0.0000 0.0000 -6.1445 -7.9602 1.1820 1.8860 -0.0000 0.0000 -9.6758 0.1118 -6.4499 -0.8127 -0.0000 0.0000
 -2.5971 32.7568 -0.8313 10.2173 -1.2860 -0.9887 -10.5306 5.0246 2.0313 -2.0245 -3.9799 6.9164 9.9217 18.9860 27.7182 -27.3678 -9.8751 -31.0927 -12.8608 -0.0000 9.8796 2.0073 29.1596 -4.1143 33.1476 -0.0000 26.2537 -23.7684 -3.8596 -38.9101 1.3015 -11.1955 36.1732 16.6114 -0.0000 29.0088 1.5318 -11.8795 7.4016 32.8623 0.0000 -24.3270 -3.7232 3.0898 1.3789 -2.8584 0.0000 0.0000 -7.5023 12.1421 -12.8166 3.8641 0.0000 -0.0000 -6.1374 -7.9571 1.1841 1.8792 0.0000 -0.0000 -9.6670 0.1087 -6.4501 -0.8151 0.0000 -0.0000
 -2.5971 32.7568 -0.8293 10.2147 -1.2841 -0.9865 -10.5348 5.0249 2.0382 -2.0532 -3.9812 6.9223 9.9142 18.9607 27.7363 -27.3581 -9.8440 -31.0993 -12.8364 -0.0000 9.9630 2.0097 29.0140 -4.1380 33.1476 -0.0000 26.2537 -23.7511 -3.8758 -38.9042 1.2800 -11.2007 36.1681 16.5956 -0.0000 28.9830 1.5282 -11.8783 7.3850 32.8623 0.0000 -24.3270 -3.7179 3.0749 1.3760 -2.8541 -0.0000 -0.0000 -7.5028 12.1543 -12.8115 3.8153 0.0000 -0.0000 -6.1258 -7.9607 1.1812 1.8685 -0.0000 -0.0000 -9.6633 0.1243 -6.4734 -0.8207 0.0000 0.0000
 -2.5974 32.7570 -0.8277 10.2120 -1.2854 -0.9867 -10.5354 5.0266 2.0461 -2.0922 -3.9862 6.9420 9.8974 18.9426 27.7431 -27.2943 -9.8988 -31.0804 -12.7419 -0.0000 9.9299 1.9847 28.9086 -4.1001 33.1476 -0.0000 26.2537 -23.7524 -3.8714 -38.8992 1.2444 -11.2468 36.1620 16.5903 -0.0000 29.0618 1.5367 -11.8606 7.4363 32.8623 0.0000 -24.3270 -3.7143 3.0749 1.3767 -2.8526 -0.0000 0.0000 -7.4954 12.1568 -12.8166 3.8183 -0.0000 -0.0000 -6.1260 -7.9684 1.1804 1.8841 -0.0000 0.0000 -9.6753 0.1304 -6.4302 -0.7800 0.0000 -0.0000
 -2.5977 32.7573 -0.8265 10.2106 -1.2810 -0.9892 -10.5358 5.0336 2.0611 -2.1353 -4.0088 6.9499 9.8864 18.8939 27.7594 -27.2743 -9.8473 -31.0830 -12.7486 -0.0000 9.9571 2.0020 28.9243 -4.1339 33.1476 -0.0000 26.2537 -23.7495 -3.8930 -38.9042 1.2378 -11.2463 36.1591 16.5735 -0.0000 29.0879 1.5308 -11.8393 7.4210 32.8623 0.0000 -24.3270 -3.7182 3.0674 1.3781 -2.8368 -0.0000 -0.0000 -7.5098 12.1644 -12.8092 3.9596 -0.0000 0.0000 -6.1220 -7.9691 1.1831 1.8835 -0.0000 0.0000 -9.6764 0.1305 -6.4245 -0.7565 0.0000 0.0000
 -2.5974 32.7573 -0.8245 10.2101 -1.2835 -0.9866 -10.5397 5.0388 2.0735 -2.1805 -4.0154 6.9531 9.9122 18.9090 27.7720 -27.3332 -9.8090 -31.1162 -12.7793 -0.0000 9.9447 2.0411 28.9723 -4.2080 33.1476 -0.0000 26.2537 -23.7434 -3.9039 -38.9072 1.2114 -11.2609 36.1500 16.5447 -0.0000 29.1149 1.5464 -11.7474 7.5532 32.8623 0.0000 -24.3270 -3.7125 3.0741 1.3746 -2.8427 -0.0000 -0.0000 -7.5054 12.1684 -12.8033 3.8271 0.0000 -0.0000 -6.1178 -7.9514 1.1807 1.8811 0.0000 -0.0000 -9.6696 0.1132 -6.4465 -0.8265 0.0000 0.0000
